<?xml version="1.0" encoding="UTF-8"?>
<svg xmlns="http://www.w3.org/2000/svg" xmlns:xlink="http://www.w3.org/1999/xlink" width="128" height="84" viewBox="0 0 128 84">
  <defs>
    <clipPath id="clip-path">
      <rect id="Rectangle_1973" data-name="Rectangle 1973" width="128" height="84" transform="translate(-0.018 -0.247)" fill="#cacaca"></rect>
    </clipPath>
  </defs>
  <g id="Mask_Group_100" data-name="Mask Group 100" transform="translate(0.018 0.247)" clip-path="url(#clip-path)">
    <g id="Group_6821" data-name="Group 6821" transform="translate(4.439 26.349)">
      <path id="Path_28732" data-name="Path 28732" d="M158.006,244.73V254.7c.951-.319,1.825-.682,2.733-.9a7.694,7.694,0,0,1,8.715,3.594,11.117,11.117,0,0,1,1.639,5.867,14.113,14.113,0,0,1-1.167,6.162,10.1,10.1,0,0,1-7.939,5.981,23.887,23.887,0,0,1-7.959-.347c-.6-.1-1.189-.251-1.786-.354-.258-.044-.318-.157-.318-.407q.031-11.629.038-23.256a8.966,8.966,0,0,0-.21-1.8,2.322,2.322,0,0,0-2-2,.868.868,0,0,1-.387-.1c-.136-.107-.312-.277-.31-.415a.525.525,0,0,1,.343-.368c2-.391,4.01-.758,6.016-1.131ZM158.144,265h-.061c.056,2.769.115,5.536.164,8.3.006.358.054.627.488.677a3.5,3.5,0,0,0,3.534-1.39,12.211,12.211,0,0,0,1.357-2.523,17.744,17.744,0,0,0,.87-7.928,9.333,9.333,0,0,0-1.263-4.174,3.7,3.7,0,0,0-4.7-1.84.445.445,0,0,0-.4.516C158.148,259.425,158.144,262.212,158.144,265Z" transform="translate(-90.392 -244.73)" fill="#cacaca"></path>
      <path id="Path_28733" data-name="Path 28733" d="M102.021,275.008h-15.3v-.925c.393-.081.8-.195,1.208-.243a2.627,2.627,0,0,0,2.5-2.217,27.387,27.387,0,0,0,.506-4.562q.1-7.066,0-14.135a21.2,21.2,0,0,0-.507-4.155,2.667,2.667,0,0,0-2.665-2.219c-.333-.036-.664-.089-1.03-.139v-1.039h23.882c.036.666.088,1.349.1,2.035.043,1.84.055,3.681.117,5.521.016.485-.094.765-.6.825a5.078,5.078,0,0,0-.629.151c-.31-.758-.58-1.483-.9-2.186a7.018,7.018,0,0,0-4.462-4.255,1.892,1.892,0,0,0-.491-.1q-2.865-.025-5.732-.036c-.1,0-.2.018-.349.032-.036.506-.094,1.005-.1,1.506q-.1,4.939-.184,9.879c-.013.79,0,.812.808.779,1.063-.044,2.128-.1,3.187-.2a2.179,2.179,0,0,0,1.732-1.109,9.881,9.881,0,0,0,.989-2.3c.141-.537.329-.709.831-.631.115.017.231.016.382.026v9.9a5.268,5.268,0,0,1-.888-.017c-.1-.019-.205-.225-.254-.365-.209-.585-.343-1.2-.605-1.763a2.907,2.907,0,0,0-2.818-1.937c-1.093.022-2.187,0-3.323,0a3.6,3.6,0,0,0-.03.445c.115,2.884.226,5.768.36,8.651a8.793,8.793,0,0,0,.24,1.289c.335,1.652,1.527,2.227,3.033,2.412.118.014.233.037.349.059C102.15,274.14,102.158,274.152,102.021,275.008Z" transform="translate(-86.717 -244.768)" fill="#cacaca"></path>
      <path id="Path_28734" data-name="Path 28734" d="M130.1,264.466c-.043,3.05-.6,5.626-2.33,7.818a9.571,9.571,0,0,1-7.318,3.775,12.244,12.244,0,0,1-4.654-.48,8.758,8.758,0,0,1-5.527-5.286,13.727,13.727,0,0,1-.275-9.614c1.491-4.491,5.351-7.006,10.278-6.865a9.419,9.419,0,0,1,7,2.9,10.56,10.56,0,0,1,2.643,5.8C130.028,263.269,130.06,264.032,130.1,264.466Zm-6.489.838c-.057-1.129-.1-2.259-.178-3.388a12.655,12.655,0,0,0-.2-1.4,8.343,8.343,0,0,0-1.705-4.159c-1.391-1.6-3.376-1.45-4.363.428a12.2,12.2,0,0,0-1.026,3.1,29.282,29.282,0,0,0-.32,6.361,16.931,16.931,0,0,0,.627,4.5,6.675,6.675,0,0,0,1.661,3.193,2.437,2.437,0,0,0,3.429.029,5.085,5.085,0,0,0,1.394-2.481A24.124,24.124,0,0,0,123.61,265.3Z" transform="translate(-88.046 -245.265)" fill="#cacaca"></path>
      <path id="Path_28735" data-name="Path 28735" d="M193.556,263.871h-.771q-5.351,0-10.7.011a6.226,6.226,0,0,0-1.062.048c-.132.024-.336.245-.328.364a15.07,15.07,0,0,0,.7,4.275,7.279,7.279,0,0,0,10.629,3.473.749.749,0,0,1,.31-.166c.189-.02.516-.045.55.033a.7.7,0,0,1-.017.614,13.567,13.567,0,0,1-1.682,1.6c-5.168,3.887-14.4,2.3-16.262-6.01a12.38,12.38,0,0,1,1.4-9.617,9.624,9.624,0,0,1,8.523-4.685c4.247-.037,7.181,2.271,8.171,6.532C193.276,261.469,193.371,262.632,193.556,263.871Zm-6.385-1.751c-.131-1.255-.181-2.451-.4-3.614a7.755,7.755,0,0,0-.858-2.348,1.624,1.624,0,0,0-2.6-.42,3.784,3.784,0,0,0-1.088,1.365,28.672,28.672,0,0,0-1.048,3.3,16.49,16.49,0,0,0-.287,1.877Z" transform="translate(-91.894 -245.265)" fill="#cacaca"></path>
      <path id="Path_28736" data-name="Path 28736" d="M196.267,271.693c0-.827.024-1.655-.01-2.481-.016-.374.1-.557.457-.641.391-.093.439.207.558.44.443.87.835,1.773,1.348,2.6a5.316,5.316,0,0,0,3.432,2.566,3.534,3.534,0,0,0,4.314-1.929,2.954,2.954,0,0,0-1.057-3.829,31.24,31.24,0,0,0-3.552-1.7,10.139,10.139,0,0,1-3.571-2.14,5.468,5.468,0,0,1-1.462-4.568c.318-3.051,2.283-5.137,5.579-5.949a13.862,13.862,0,0,1,4.794-.126,24.242,24.242,0,0,1,3.629.861.6.6,0,0,1,.326.453c.053,1.553.055,3.106.114,4.659.018.458-.255.53-.568.608-.345.087-.347-.208-.449-.411a29.587,29.587,0,0,0-1.6-3.085,4.027,4.027,0,0,0-3.65-1.812,2.748,2.748,0,0,0-2.664,1.9,2.993,2.993,0,0,0,.878,3.575,19.611,19.611,0,0,0,2.7,1.577c1,.517,2.046.96,3.073,1.43,5.127,2.348,3.76,8.95.436,10.943a10.533,10.533,0,0,1-5.093,1.477,22.017,22.017,0,0,1-7.145-.955.861.861,0,0,1-.725-.977c.028-.826.008-1.655.008-2.482Z" transform="translate(-93.175 -245.264)" fill="#cacaca"></path>
      <path id="Path_28737" data-name="Path 28737" d="M140.693,253.849v4.577l.1.034c.171-.279.35-.555.512-.84a8.663,8.663,0,0,1,2.064-2.543,5.259,5.259,0,0,1,5.355-1.012c.372.132.486.3.323.71-.62,1.566-1.2,3.149-1.795,4.724-.046.123-.113.238-.154.326a24.252,24.252,0,0,0-2.47-.755,4.744,4.744,0,0,0-3.477.52,1.039,1.039,0,0,0-.586,1.011c.057,3.462.072,6.924.126,10.386a9.969,9.969,0,0,0,.214,1.755,1.855,1.855,0,0,0,1.665,1.654c.335.044.67.1,1.007.12.838.062.839.059.679.978H131.712c-.106-.847-.112-.882.67-1.011,1.4-.229,2-.808,2.126-2.5a106.4,106.4,0,0,0,.089-12.659,5.969,5.969,0,0,0-.125-.9c-.271-1.335-.7-1.741-2.065-1.976a.853.853,0,0,1-.342-.081c-.151-.108-.383-.271-.373-.392a.6.6,0,0,1,.382-.4c1.05-.246,2.11-.455,3.167-.671q2.578-.527,5.158-1.045A2.077,2.077,0,0,1,140.693,253.849Z" transform="translate(-89.367 -245.26)" fill="#cacaca"></path>
    </g>
  </g>
</svg>
