<?xml version="1.0" encoding="UTF-8"?>
<svg xmlns="http://www.w3.org/2000/svg" id="_Home_Logo_-_FundedX-C1" data-name="[Home] Logo - FundedX-C1" width="166" height="39.01" viewBox="0 0 166 39.01">
  <g id="Group_4190" data-name="Group 4190" transform="translate(0 9.753)">
    <path id="Path_26460" data-name="Path 26460" d="M19.432,62.72V58.836H3.961V58.75H0V78.255H3.884l.031-7.767h15.5l.013-3.884H3.93l.015-3.884Z" transform="translate(0 -58.75)" fill="#151712"></path>
    <path id="Path_26461" data-name="Path 26461" d="M157.471,59.269h3.884V72.215q0,6.473-6.473,6.473h-6.473q-6.473,0-6.473-6.473V59.269h3.884V71.684q0,3.12,3.107,3.12h5.424q3.12,0,3.12-3.133Z" transform="translate(-118.375 -59.183)" fill="#151712"></path>
    <path id="Path_26462" data-name="Path 26462" d="M287.718,65.159V78.688h-3.884V59.269H287.8L299.369,72.8V59.269h3.884V78.688H299.3L287.718,65.159Z" transform="translate(-236.717 -59.183)" fill="#151712"></path>
    <path id="Path_26463" data-name="Path 26463" d="M438.678,59.269H425.732V78.688h12.946q6.473,0,6.473-6.473V65.742q0-6.473-6.473-6.473Zm2.563,12.467q0,3.068-3.107,3.068h-8.5l.047-11.651h8.469q3.094,0,3.094,3.055v5.528Z" transform="translate(-355.06 -59.183)" fill="#151712"></path>
    <path id="Path_26464" data-name="Path 26464" d="M587.047,63.153V59.269H567.628V78.688h19.419V74.8h-15.52l.016-3.884h15.5V67.036H571.558l.016-3.884Z" transform="translate(-473.402 -59.183)" fill="#151712"></path>
    <path id="Path_26465" data-name="Path 26465" d="M722.471,59.269H709.526V78.688h12.946q6.473,0,6.473-6.473V65.742q0-6.473-6.473-6.473Zm2.563,12.467q0,3.068-3.107,3.068h-8.5l.047-11.651h8.469q3.094,0,3.094,3.055v5.528Z" transform="translate(-591.744 -59.183)" fill="#151712"></path>
  </g>
  <g id="Group_4191" data-name="Group 4191" transform="translate(133.388)">
    <path id="Path_26466" data-name="Path 26466" d="M899.509,21.409l6.567,7.848h-5.1l-6.877-8.23L911.681,0Z" transform="translate(-879.069)" fill="#151712"></path>
    <path id="Path_26467" data-name="Path 26467" d="M815.711,66.6,803.54,88.008,821.119,66.98l-6.877-8.23h-5.1Z" transform="translate(-803.54 -48.997)" fill="#858585"></path>
  </g>
</svg>
