<?xml version="1.0" encoding="UTF-8"?>
<svg xmlns="http://www.w3.org/2000/svg" xmlns:xlink="http://www.w3.org/1999/xlink" width="128" height="84" viewBox="0 0 128 84">
  <defs>
    <clipPath id="clip-path">
      <rect id="Rectangle_1694" data-name="Rectangle 1694" width="128" height="84" transform="translate(-0.009 -0.247)" fill="#cacaca"></rect>
    </clipPath>
  </defs>
  <g id="Mask_Group_95" data-name="Mask Group 95" transform="translate(0.009 0.247)" clip-path="url(#clip-path)">
    <g id="Google_bw" data-name="Google bw" transform="translate(0 20.805)">
      <path id="Path_28648" data-name="Path 28648" d="M18.2,79.272a4.327,4.327,0,0,0,.108-.514,16.024,16.024,0,0,1,5.478-10.713,16.4,16.4,0,0,1,8.269-3.991A16.764,16.764,0,0,1,36.5,63.9a15.337,15.337,0,0,1,9.366,4.256,1.023,1.023,0,0,1,.108.108v.032l-3.131,3.131c-.054-.049-.135-.108-.211-.178a11.275,11.275,0,0,0-5.408-2.736A11.67,11.67,0,0,0,23.64,76.552,12,12,0,0,0,26.885,88.92a11.281,11.281,0,0,0,6.295,2.991,12.173,12.173,0,0,0,6.549-.833A9.945,9.945,0,0,0,43.8,87.9a8.955,8.955,0,0,0,1.52-3.623c.065-.335.119-.671.184-1.055H34.84V78.791H49.884c.054.449.13.892.157,1.336a17.646,17.646,0,0,1-.919,7.128,13.433,13.433,0,0,1-4.867,6.376A14.168,14.168,0,0,1,38.128,96.2a18.229,18.229,0,0,1-4.57.227A16.716,16.716,0,0,1,18.805,84.291a14.558,14.558,0,0,1-.492-2.7,4.867,4.867,0,0,0-.108-.541Z" transform="translate(-18.2 -63.818)" fill="#cacaca"></path>
      <path id="Path_28649" data-name="Path 28649" d="M111.824,106.668l-.979-.173a9.842,9.842,0,0,1-6.96-4.8c-.243-.389-.433-.806-.665-1.244l4.034-1.676c.049.1.1.184.141.276a6.49,6.49,0,0,0,1.585,2.1,5.511,5.511,0,0,0,4.386,1.3,5.7,5.7,0,0,0,1.714-.427,4.775,4.775,0,0,0,2.736-3.1,6.673,6.673,0,0,0,.341-1.9c0-.725,0-1.455,0-2.163-.13-.07-.184.038-.254.108A6.684,6.684,0,0,1,114.36,97a8.523,8.523,0,0,1-5.408-.476,10.275,10.275,0,0,1-6.408-7.95,10.61,10.61,0,0,1,5.868-11.454,9.047,9.047,0,0,1,4.667-.9,7.16,7.16,0,0,1,4.8,2.163,2.3,2.3,0,0,0,.265.2c.038-.633,0-1.19,0-1.758h4.364V95.669a15.094,15.094,0,0,1-.568,4.326,9.123,9.123,0,0,1-2.639,4.326,9.009,9.009,0,0,1-4.418,2.114c-.449.087-.909.13-1.363.2a1.053,1.053,0,0,0-.206.054Zm-4.8-19.885a2.815,2.815,0,0,0,.038.541,6.187,6.187,0,0,0,1.487,3.694,5.478,5.478,0,0,0,5.554,1.9,5.138,5.138,0,0,0,3.483-2.623,7.209,7.209,0,0,0,.541-5.949,5.7,5.7,0,0,0-2.563-3.3,5.446,5.446,0,0,0-6.425.719,6.592,6.592,0,0,0-2.114,5.024Z" transform="translate(-23.162 -64.547)" fill="#cacaca"></path>
      <path id="Path_28650" data-name="Path 28650" d="M99.36,86.689a10.432,10.432,0,0,1-6.576,9.761,10.783,10.783,0,0,1-11.611-2.358,10.037,10.037,0,0,1-2.85-5.781,10.513,10.513,0,0,1,1.758-7.722,10.037,10.037,0,0,1,6.587-4.213,10.567,10.567,0,0,1,7.663,1.32,9.977,9.977,0,0,1,4.824,7.1C99.247,85.423,99.3,86.062,99.36,86.689Zm-16.532,0a6.727,6.727,0,0,0,.838,3.353,5.792,5.792,0,0,0,9.826.541,6.938,6.938,0,0,0,0-7.8,5.786,5.786,0,0,0-9.053-.541,6.441,6.441,0,0,0-1.612,4.451Z" transform="translate(-21.736 -64.545)" fill="#cacaca"></path>
      <path id="Path_28651" data-name="Path 28651" d="M64.291,97.222a10.334,10.334,0,0,1-8.653-4.786,10.053,10.053,0,0,1-1.622-4.959,10.475,10.475,0,0,1,1.255-5.949,9.988,9.988,0,0,1,6.69-5.056,10.545,10.545,0,0,1,8.707,1.568,9.918,9.918,0,0,1,4.326,6.987,10.421,10.421,0,0,1-1.13,6.717,10.194,10.194,0,0,1-7.1,5.229A12.98,12.98,0,0,1,64.291,97.222Zm6.2-10.535a6.489,6.489,0,0,0-.449-2.5A5.7,5.7,0,0,0,64.9,80.339a5.554,5.554,0,0,0-4.932,2.244,6.322,6.322,0,0,0-1.32,3.483,6.765,6.765,0,0,0,.838,4,5.77,5.77,0,0,0,9.377,1.082A6.441,6.441,0,0,0,70.488,86.688Z" transform="translate(-20.309 -64.544)" fill="#cacaca"></path>
      <path id="Path_28652" data-name="Path 28652" d="M152.984,84.067l-14.06,5.813c.059.114.1.205.151.292a5.289,5.289,0,0,0,2.785,2.52,5.981,5.981,0,0,0,6.619-1.59c.26-.3.5-.606.768-.93,1.179.779,2.352,1.563,3.558,2.369-.065.1-.124.195-.189.281a10.592,10.592,0,0,1-16.456.876,9.978,9.978,0,0,1-2.45-5.473,11.119,11.119,0,0,1,1.082-6.7,9.329,9.329,0,0,1,6.938-5.181A8.893,8.893,0,0,1,150.924,80a11.026,11.026,0,0,1,1.53,2.747c.13.324.265.654.395.984A1.279,1.279,0,0,1,152.984,84.067Zm-14.78,2.3,9.361-3.888a.709.709,0,0,0-.027-.114.666.666,0,0,0-.065-.141,3.174,3.174,0,0,0-1.314-1.341,4.77,4.77,0,0,0-3.883-.416,5.781,5.781,0,0,0-4.1,5.684C138.172,86.209,138.2,86.268,138.2,86.366Z" transform="translate(-25.002 -64.546)" fill="#cacaca"></path>
      <path id="Path_28653" data-name="Path 28653" d="M131.232,95.9h-4.461V65.146c.211-.059,3.991-.087,4.461,0Z" transform="translate(-24.6 -63.893)" fill="#cacaca"></path>
    </g>
  </g>
</svg>
