<?xml version="1.0" encoding="UTF-8"?>
<svg xmlns="http://www.w3.org/2000/svg" xmlns:xlink="http://www.w3.org/1999/xlink" width="128" height="84" viewBox="0 0 128 84">
  <defs>
    <clipPath id="clip-path">
      <rect id="Rectangle_1692" data-name="Rectangle 1692" width="128" height="84" transform="translate(0 -0.247)" fill="#cacaca"></rect>
    </clipPath>
  </defs>
  <g id="Mask_Group_93" data-name="Mask Group 93" transform="translate(0 0.247)" clip-path="url(#clip-path)">
    <g id="Yahoo_finance_bw" data-name="Yahoo finance bw" transform="translate(0 18.407)">
      <path id="Path_28625" data-name="Path 28625" d="M76.589,92.073c-.362.039-.613.084-.87.084H69.653V63.989h6.864V74.354a6.769,6.769,0,0,1,4.862-2.23A6.318,6.318,0,0,1,88.2,77.906a40.059,40.059,0,0,1,.2,4.41v9.768H81.434V90.679c0-3.245-.033-6.49-.084-9.735a2.138,2.138,0,0,0-1.483-2.292c-1.734-.585-3.234.6-3.262,2.671-.039,3.212,0,6.423-.028,9.64Z" transform="translate(-23.749 -63.941)" fill="#cacaca"></path>
      <path id="Path_28626" data-name="Path 28626" d="M59.142,74.738l.072-1.567h6.6V92.6H59.236l-.089-1.271a15.045,15.045,0,0,1-3.256,1.595,8.524,8.524,0,0,1-9.083-3.195,11.335,11.335,0,0,1,.68-14.357C50.321,72.39,55.674,71.47,59.142,74.738ZM51.3,82.9a3.981,3.981,0,1,0,3.981-3.942A3.875,3.875,0,0,0,51.3,82.9Z" transform="translate(-22.27 -64.453)" fill="#cacaca"></path>
      <path id="Path_28627" data-name="Path 28627" d="M20.873,73.135c2.442,0,4.762,0,7.081.033.245,0,.558.44.7.747,1.2,3,2.37,6.016,3.552,9.027.162.418.335.842.558,1.444.19-.374.329-.6.424-.842,1.255-3.156,2.526-6.306,3.73-9.479a1.243,1.243,0,0,1,1.422-.948c2.057.061,4.115,0,6.3,0-.847,2.074-1.639,4.037-2.448,5.988q-4.182,10.036-8.33,20.072a1.043,1.043,0,0,1-1.115.792c-2.119-.033-4.237,0-6.518,0,.162-.452.262-.775.4-1.115.7-1.673,1.372-3.39,2.141-5.018a2.23,2.23,0,0,0-.033-2.035Q24.977,83.043,21.3,74.228A10.43,10.43,0,0,1,20.873,73.135Z" transform="translate(-20.873 -64.478)" fill="#cacaca"></path>
      <path id="Path_28628" data-name="Path 28628" d="M125.028,72.657a10.261,10.261,0,1,1,.028,20.518c-5.994.006-10.493-4.316-10.5-10.192A10.067,10.067,0,0,1,125.028,72.657Zm3.83,10.326A3.736,3.736,0,0,0,125.067,79a3.9,3.9,0,0,0-.045,7.806,3.758,3.758,0,0,0,3.836-3.819Z" transform="translate(-26.396 -64.452)" fill="#cacaca"></path>
      <path id="Path_28629" data-name="Path 28629" d="M101.558,72.657a10.26,10.26,0,1,1,.05,20.518A10.18,10.18,0,0,1,91.054,82.989C91.043,77.023,95.475,72.663,101.558,72.657ZM97.7,82.9a3.752,3.752,0,0,0,3.842,3.9A3.9,3.9,0,0,0,101.586,79,3.747,3.747,0,0,0,97.7,82.9Z" transform="translate(-25.011 -64.452)" fill="#cacaca"></path>
      <path id="Path_28630" data-name="Path 28630" d="M140.349,81.655l4.081-9.9c.987-2.386,1.963-4.773,2.983-7.148.117-.273.446-.647.68-.652,2.554-.045,5.1,0,7.806,0l-1.338,3.267c-1.885,4.561-3.78,9.116-5.637,13.683a1.037,1.037,0,0,1-1.115.792C145.372,81.633,142.953,81.655,140.349,81.655Z" transform="translate(-27.917 -63.938)" fill="#cacaca"></path>
      <path id="Path_28631" data-name="Path 28631" d="M111.152,112.732h-3.858l-.112-.736c-4.377,2.186-7.282.9-8.319-3.842a5.464,5.464,0,0,1,2.5-6.061,4.489,4.489,0,0,1,5.782.519c.033-.268.05-.413.072-.558l.072-.413h3.864Zm-3.9-5.576a2.242,2.242,0,1,0-2.225,2.269,2.2,2.2,0,0,0,2.225-2.264Z" transform="translate(-25.461 -66.139)" fill="#cacaca"></path>
      <path id="Path_28632" data-name="Path 28632" d="M124.63,112.711h-4.087v-6.022c0-1.115-.4-1.589-1.26-1.606s-1.321.435-1.349,1.544c-.05,2,0,3.992,0,6.061h-4.187v-2.866c0-2.453.045-4.912.028-7.371,0-.63.178-.881.831-.847,1.015.045,2.035,0,3.117,0,.084.279.167.558.279.965a3.9,3.9,0,0,1,3.674-1.2,3.479,3.479,0,0,1,2.944,3.145C124.713,107.23,124.63,109.945,124.63,112.711Z" transform="translate(-26.348 -66.14)" fill="#cacaca"></path>
      <path id="Path_28633" data-name="Path 28633" d="M86.065,101.63h3.869l.162.747A9.961,9.961,0,0,1,92.5,101.4c2.593-.307,4.276,1.2,4.36,3.83.072,2.292.05,4.589.067,6.88a4.624,4.624,0,0,1-.084.608H92.867v-4.327c0-.686-.05-1.372-.1-2.057a1.176,1.176,0,0,0-1.321-1.249,1.238,1.238,0,0,0-1.294,1.321c-.072,1.439-.072,2.883-.095,4.327v1.985H86.071Z" transform="translate(-24.717 -66.144)" fill="#cacaca"></path>
      <path id="Path_28634" data-name="Path 28634" d="M147.99,108.235h-7.416a1.885,1.885,0,0,0,3.067,1.249,1.333,1.333,0,0,1,1.578-.156c.8.34,1.617.641,2.5.992-.251.351-.418.624-.624.87-1.522,1.812-4.873,2.431-7.365,1.377a5.944,5.944,0,0,1,1.466-11.151C146.033,100.663,148.614,104.366,147.99,108.235Zm-3.9-2.392a1.829,1.829,0,0,0-3.546,0Z" transform="translate(-27.685 -66.142)" fill="#cacaca"></path>
      <path id="Path_28635" data-name="Path 28635" d="M78.035,99.52c-2.23-.206-2.788.112-2.788,1.756.675,0,1.355-.039,2.018,0a.815.815,0,0,1,.647.468,10.933,10.933,0,0,1,0,1.762c0,.323-.045.647-.078,1.082H75.163v7.806H71.126v-7.733l-1.45-.112v-3.206l1.333-.117c.089-.6.145-1.176.268-1.74.708-3.345,3.9-3.992,6.256-3.345a.92.92,0,0,1,.48.675C78.068,97.652,78.035,98.555,78.035,99.52Z" transform="translate(-23.75 -65.823)" fill="#cacaca"></path>
      <path id="Path_28636" data-name="Path 28636" d="M135.186,105.536c-1.617-.558-3.094-.976-4.2.558a2.03,2.03,0,0,0,.251,2.47c1.16,1.193,2.481.87,3.9.234,0,1.188,0,2.308-.028,3.423,0,.167-.323.4-.558.463-4.087,1.255-7.806-1.115-8-5.224-.178-4,3.345-7.059,7.767-5.916.63.162.937.44.887,1.149C135.142,103.612,135.186,104.521,135.186,105.536Z" transform="translate(-27.103 -66.141)" fill="#cacaca"></path>
      <path id="Path_28637" data-name="Path 28637" d="M142.227,93.706a4.41,4.41,0,0,1-4.544-4.5,4.622,4.622,0,0,1,4.633-4.605,4.394,4.394,0,0,1,4.539,4.416,4.572,4.572,0,0,1-4.628,4.689Z" transform="translate(-27.759 -65.156)" fill="#cacaca"></path>
      <path id="Path_28638" data-name="Path 28638" d="M79.945,112.712V101.683h3.9v11.029Z" transform="translate(-24.356 -66.163)" fill="#cacaca"></path>
      <path id="Path_28639" data-name="Path 28639" d="M81.886,100.25a2.23,2.23,0,0,1-2.3-2.169,2.3,2.3,0,0,1,2.342-2.264,2.23,2.23,0,0,1,2.23,2.258,2.174,2.174,0,0,1-2.269,2.174Z" transform="translate(-24.334 -65.817)" fill="#cacaca"></path>
    </g>
  </g>
</svg>
