<?xml version="1.0" encoding="UTF-8"?>
<svg xmlns="http://www.w3.org/2000/svg" xmlns:xlink="http://www.w3.org/1999/xlink" width="127" height="84" viewBox="0 0 127 84">
  <defs>
    <clipPath id="clip-path">
      <rect id="Rectangle_1693" data-name="Rectangle 1693" width="127" height="84" transform="translate(0.496 -0.247)" fill="#cacaca"></rect>
    </clipPath>
  </defs>
  <g id="Mask_Group_94" data-name="Mask Group 94" transform="translate(-0.496 0.247)" clip-path="url(#clip-path)">
    <g id="Youtube_logo_bw" data-name="Youtube logo bw" transform="translate(0 27.596)">
      <path id="Path_28640" data-name="Path 28640" d="M46.979,78.9c2.845.083,6.339.159,9.827.3a31.086,31.086,0,0,1,5.123.519,4.893,4.893,0,0,1,4,3.765,23.42,23.42,0,0,1,.549,3.388,65.46,65.46,0,0,1,.218,9.254,40.051,40.051,0,0,1-.637,6.333,5.076,5.076,0,0,1-4.568,4.314c-1.771.218-3.606.354-5.412.454-4.432.242-8.853.277-13.309.189-2.827-.053-5.654-.183-8.475-.33a24.783,24.783,0,0,1-3.3-.4,4.987,4.987,0,0,1-4.285-4.338,41.465,41.465,0,0,1-.543-4.68c-.112-2.136-.148-4.285-.112-6.427a42.387,42.387,0,0,1,.631-7.171,5.312,5.312,0,0,1,2.839-3.948,6.622,6.622,0,0,1,2.4-.59c2.65-.3,5.312-.419,7.973-.466ZM42.335,99.322,53,93.179,42.376,87.052Z" transform="translate(-26.044 -78.896)" fill="#cacaca"></path>
      <path id="Path_28641" data-name="Path 28641" d="M140.576,103.8c-.153.59-.283,1.127-.425,1.676h-3.293V80.194a22.326,22.326,0,0,1,3.866-.035v9.148l.106.035c.106-.142.2-.289.313-.425a3.913,3.913,0,0,1,3.937-1.593,2.856,2.856,0,0,1,2.213,1.735,8.452,8.452,0,0,1,.667,2.845,67.014,67.014,0,0,1,.1,7.926,11.148,11.148,0,0,1-.525,3.1,8.266,8.266,0,0,1-.319.826,3.273,3.273,0,0,1-4.013,1.93,3.671,3.671,0,0,1-2.414-1.635C140.747,104,140.7,103.943,140.576,103.8Zm.183-6.982v4.721a1.057,1.057,0,0,0,.124.59,1.629,1.629,0,0,0,1.558.761,1.293,1.293,0,0,0,1.18-1.021,8.853,8.853,0,0,0,.331-1.771,51.809,51.809,0,0,0,0-7.537,6.9,6.9,0,0,0-.39-1.717,1.074,1.074,0,0,0-1.464-.59,2.148,2.148,0,0,0-1.363,1.912c.018,1.511.024,3.081.024,4.627Z" transform="translate(-32.577 -78.967)" fill="#cacaca"></path>
      <path id="Path_28642" data-name="Path 28642" d="M122.634,88.132h4.06v12.943a7.771,7.771,0,0,0,.136,1.481,1,1,0,0,0,1.452.809,3.04,3.04,0,0,0,.767-.419,1.18,1.18,0,0,0,.484-1.056V88.214a19.836,19.836,0,0,1,4.025-.035v17.705a14.164,14.164,0,0,1-3.146.03c-.047-.336-.1-.679-.153-1.021s-.124-.673-.207-1.121c-.189.289-.307.472-.431.649a4.055,4.055,0,0,1-4.279,1.771,2.774,2.774,0,0,1-2.266-1.889,7.915,7.915,0,0,1-.425-2.892q0-3.541,0-7.082v-6.2Z" transform="translate(-31.738 -79.438)" fill="#cacaca"></path>
      <path id="Path_28643" data-name="Path 28643" d="M100.683,88.125h4c0,.248.035.478.035.708v11.981a12.014,12.014,0,0,0,.059,1.381c.142,1.18.968,1.593,2.007.968a1.475,1.475,0,0,0,.791-1.4V88.2a22.733,22.733,0,0,1,3.948-.053c.124.384.153,17.216,0,17.824h-3.087c-.118-.685-.23-1.369-.366-2.184l-.419.59a4.131,4.131,0,0,1-4.314,1.835,2.833,2.833,0,0,1-2.237-1.853,6.982,6.982,0,0,1-.431-2.55V88.125Z" transform="translate(-30.444 -79.438)" fill="#cacaca"></path>
      <path id="Path_28644" data-name="Path 28644" d="M97.816,97.076c-.065,1.334-.106,2.662-.207,3.99a7.974,7.974,0,0,1-.59,2.414,4.131,4.131,0,0,1-3.329,2.685,8.262,8.262,0,0,1-3.677-.189,3.848,3.848,0,0,1-2.6-2.231,7.962,7.962,0,0,1-.655-2.62,43.355,43.355,0,0,1,0-7.973,10.323,10.323,0,0,1,.59-2.414,4.178,4.178,0,0,1,3.441-2.862A7.867,7.867,0,0,1,94.251,88a3.883,3.883,0,0,1,2.514,2.024,7.92,7.92,0,0,1,.862,3.075C97.715,94.42,97.763,95.748,97.816,97.076Zm-4.078-.059c-.03-1.393-.041-2.8-.106-4.2a5.6,5.6,0,0,0-.283-1.458,1.092,1.092,0,0,0-1.18-.85,1.074,1.074,0,0,0-1.133.873,6.309,6.309,0,0,0-.307,1.676q-.041,3.931,0,7.861a6.309,6.309,0,0,0,.307,1.676,1.1,1.1,0,0,0,1.127.885,1.08,1.08,0,0,0,1.151-.85,5.655,5.655,0,0,0,.289-1.458C93.7,99.8,93.708,98.421,93.738,97.017Z" transform="translate(-29.613 -79.417)" fill="#cacaca"></path>
      <path id="Path_28645" data-name="Path 28645" d="M82.252,105.537H78.321V98.213a3.317,3.317,0,0,0-.118-.873q-2.172-7.908-4.361-15.805a2.33,2.33,0,0,0-.089-.419h4c.844,4,1.694,8.038,2.538,12.034q1.3-5.99,2.609-12.052h4.019l-.59,2.154q-1.948,6.958-3.9,13.922a3.636,3.636,0,0,0-.136.98q0,3.355,0,6.71Z" transform="translate(-28.857 -79.026)" fill="#cacaca"></path>
      <path id="Path_28646" data-name="Path 28646" d="M161.359,98.293h-6.61c-.035.077-.083.13-.083.177q.053,1.771.112,3.541a2.142,2.142,0,0,0,.077.378,1.245,1.245,0,0,0,1.322,1.1,1.281,1.281,0,0,0,1.387-1.092,11.7,11.7,0,0,0,.212-1.363c0-.183.03-.36.053-.59l3.411.2a1.936,1.936,0,0,1,.065.4,16.009,16.009,0,0,1-.207,1.918,3.653,3.653,0,0,1-2.437,2.792,6.976,6.976,0,0,1-4.621.118,3.777,3.777,0,0,1-2.278-1.9,7.478,7.478,0,0,1-.844-2.851,45.965,45.965,0,0,1,0-8.357,8.186,8.186,0,0,1,.59-2.361,4.078,4.078,0,0,1,3.1-2.573,7.849,7.849,0,0,1,3.541.071,3.541,3.541,0,0,1,2.485,2.1,7.336,7.336,0,0,1,.62,2.685c.077,1.771.083,3.582.118,5.371A1.534,1.534,0,0,1,161.359,98.293Zm-3.813-2.361a1.529,1.529,0,0,0,.041-.3c0-1.051,0-2.107-.053-3.157a4.515,4.515,0,0,0-.236-1.245,1.18,1.18,0,0,0-1.31-.8,1.074,1.074,0,0,0-1.074.868,2.124,2.124,0,0,0-.136.59c-.041,1.3-.071,2.615-.1,3.925,0,0,.035.059.065.112Z" transform="translate(-33.395 -79.413)" fill="#cacaca"></path>
      <path id="Path_28647" data-name="Path 28647" d="M123.125,84.326h-3.937v21.205h-3.913V84.344h-3.9a14.666,14.666,0,0,1-.071-3.234h11.8a15.079,15.079,0,0,1,.018,3.216Z" transform="translate(-31.067 -79.027)" fill="#cacaca"></path>
    </g>
  </g>
</svg>
