<svg xmlns="http://www.w3.org/2000/svg" width="39.221" height="56.654" viewBox="0 0 39.221 56.654">
  <g id="Group_6550" data-name="Group 6550" transform="translate(-1217.831 -650.517)">
    <g id="Group_6545" data-name="Group 6545" transform="translate(1217.831 650.517)">
      <path id="Path_28550" data-name="Path 28550" d="M1253.891,651.738l-3.161,1.222,1.655,1.385-11.418,13.647-8.417-7.043-14.719,17.591,1.72,1.439,13.28-15.871,8.207,6.867.21.176,12.857-15.366,1.657,1.387.645-3.327.645-3.327Z" transform="translate(-1217.831 -650.517)" fill="#cecece"/>
    </g>
    <g id="Group_6546" data-name="Group 6546" transform="translate(1219.785 686.902)">
      <rect id="Rectangle_1610" data-name="Rectangle 1610" width="6.677" height="20.048" transform="translate(0 0)" fill="#858585"/>
    </g>
    <g id="Group_6547" data-name="Group 6547" transform="translate(1229.105 675.492)">
      <rect id="Rectangle_1611" data-name="Rectangle 1611" width="6.677" height="31.678" transform="translate(0 0)" fill="#858585"/>
    </g>
    <g id="Group_6548" data-name="Group 6548" transform="translate(1238.44 680.266)">
      <rect id="Rectangle_1612" data-name="Rectangle 1612" width="6.677" height="26.905" transform="translate(0 0)" fill="#858585"/>
    </g>
    <g id="Group_6549" data-name="Group 6549" transform="translate(1247.775 669.536)">
      <rect id="Rectangle_1613" data-name="Rectangle 1613" width="6.677" height="37.635" transform="translate(0 0)" fill="#858585"/>
    </g>
  </g>
</svg>
