<svg xmlns="http://www.w3.org/2000/svg" width="50" height="52.145" viewBox="0 0 50 52.145">
  <g id="Group_6538" data-name="Group 6538" transform="translate(-317.188 -106.559)">
    <g id="Group_6537" data-name="Group 6537" transform="translate(324.962 106.559)">
      <path id="Path_28538" data-name="Path 28538" d="M354.2,106.559a22.236,22.236,0,0,0-15.521,6.29L354.2,128.871Z" transform="translate(-338.682 -106.559)" fill="#212930"/>
    </g>
    <path id="Path_28539" data-name="Path 28539" d="M323.98,140.693a22.289,22.289,0,0,0-2.679,28.92l18.2-12.9Z" transform="translate(0 -21.788)" fill="#646464"/>
    <path id="Path_28540" data-name="Path 28540" d="M382.367,147.593a22.979,22.979,0,0,0-.2-2.932q-.073-.546-.171-1.084a22.282,22.282,0,0,0-.538-2.282q-.14-.482-.3-.953-.352-1.035-.8-2.021c-.129-.288-.263-.57-.4-.851q-.467-.928-1.013-1.807c-.16-.257-.322-.512-.492-.762q-.631-.926-1.348-1.787-.284-.34-.582-.672-.668-.741-1.4-1.421c-.216-.2-.437-.4-.662-.591q-.761-.656-1.577-1.244-.365-.265-.74-.514c-.57-.378-1.157-.734-1.763-1.059q-.409-.221-.828-.425a22.5,22.5,0,0,0-2.2-.932c-.309-.112-.62-.219-.936-.318a22.828,22.828,0,0,0-2.243-.579q-.527-.107-1.063-.19a22.886,22.886,0,0,0-2.576-.244c-.3-.011-.607-.023-.913-.023a.443.443,0,0,0-.443.443v22.084l-1.577,1.117-4.3,3.051-9.688,6.867-2.443,1.733a.44.44,0,0,0-.181.286.447.447,0,0,0,.076.331c.027.039.058.075.085.113.393.547.813,1.069,1.249,1.574.194.224.388.446.591.663q.683.731,1.424,1.4c.221.2.445.392.672.582.575.478,1.167.933,1.784,1.351.251.17.51.327.767.487q.881.547,1.807,1.015c.281.139.562.278.847.406.661.3,1.339.559,2.028.794.315.107.631.209.951.3a22.637,22.637,0,0,0,2.274.548c.36.066.724.118,1.087.165a22.618,22.618,0,0,0,2.932.2l.062,0c.411,0,.818-.013,1.223-.034a22.619,22.619,0,0,0,3.228-.406c.558-.111,1.108-.246,1.651-.4a22.616,22.616,0,0,0,4.733-1.911,23.057,23.057,0,0,0,9.173-9.174,22.577,22.577,0,0,0,1.911-4.731c.151-.544.286-1.093.4-1.653a22.792,22.792,0,0,0,.406-3.226c.021-.406.034-.813.034-1.223C382.368,147.636,382.367,147.614,382.367,147.593Z" transform="translate(-15.18 -11.708)" fill="#cacaca"/>
  </g>
</svg>
