<svg xmlns="http://www.w3.org/2000/svg" xmlns:xlink="http://www.w3.org/1999/xlink" width="16" height="15" viewBox="0 0 16 15">
  <defs>
    <clipPath id="clip-path">
      <rect id="Rectangle_1420" data-name="Rectangle 1420" width="16" height="15" transform="translate(574 4001.5)" fill="#627e93"/>
    </clipPath>
  </defs>
  <g id="Mask_Group_58" data-name="Mask Group 58" transform="translate(-574 -4001.5)" clip-path="url(#clip-path)">
    <path id="discord" d="M13.587,1.378A6.565,6.565,0,0,0,9.868,0L9.682.212A8.73,8.73,0,0,1,12.99,1.881a11.469,11.469,0,0,0-10.705,0A8.721,8.721,0,0,1,5.764.159L5.632,0A6.6,6.6,0,0,0,1.913,1.378,17.452,17.452,0,0,0,0,9.034a4.826,4.826,0,0,0,4.051,2s.491-.583.89-1.086A4.151,4.151,0,0,1,2.617,8.4,9.851,9.851,0,0,0,6.083,9.736,9.624,9.624,0,0,0,12.977,8.4a4.211,4.211,0,0,1-2.4,1.563c.4.49.877,1.06.877,1.06A4.871,4.871,0,0,0,15.5,9.034,17.454,17.454,0,0,0,13.587,1.378ZM5.273,7.8A1.409,1.409,0,0,1,3.918,6.345a1.358,1.358,0,1,1,2.71,0A1.4,1.4,0,0,1,5.273,7.8Zm4.848,0A1.409,1.409,0,0,1,8.766,6.345a1.358,1.358,0,1,1,2.71,0A1.4,1.4,0,0,1,10.121,7.8Z" transform="translate(574 4003.233)" fill="#fff"/>
  </g>
</svg>
