<svg xmlns="http://www.w3.org/2000/svg" xmlns:xlink="http://www.w3.org/1999/xlink" width="66" height="66" viewBox="0 0 66 66">
  <defs>
    <clipPath id="clip-path">
      <rect id="Rectangle_1419" data-name="Rectangle 1419" width="66" height="66" transform="translate(574 4001)" fill="#141414"/>
    </clipPath>
  </defs>
  <g id="Mask_Group_57" data-name="Mask Group 57" transform="translate(-574 -4001)" clip-path="url(#clip-path)">
    <path id="discord" d="M57.856,5.867C49.769-.168,42.02,0,42.02,0l-.792.9C50.843,3.78,55.311,8.01,55.311,8.01,41.555.457,24.035.511,9.727,8.01c0,0,4.637-4.456,14.818-7.332L23.98,0S16.288-.168,8.144,5.866A74.31,74.31,0,0,0,0,38.466s4.751,8.122,17.25,8.517c0,0,2.092-2.482,3.789-4.625-7.182-2.143-9.9-6.6-9.9-6.6a41.946,41.946,0,0,0,14.761,5.7,40.978,40.978,0,0,0,29.352-5.7s-2.828,4.569-10.237,6.655c1.7,2.087,3.733,4.512,3.733,4.512C61.25,46.532,66,38.41,66,38.467A74.321,74.321,0,0,0,57.856,5.867Zm-35.4,27.354a6,6,0,0,1-5.769-6.2c.231-8.24,11.364-8.214,11.537,0A5.966,5.966,0,0,1,22.452,33.221Zm20.642,0a6,6,0,0,1-5.769-6.2c.254-8.223,11.247-8.227,11.537,0A5.965,5.965,0,0,1,43.095,33.221Z" transform="translate(574 4010.509)" fill="#141414"/>
  </g>
</svg>
