<svg xmlns="http://www.w3.org/2000/svg" width="48.6" height="48.6" viewBox="0 0 48.6 48.6">
  <g id="Icon_6_-_Traders" data-name="Icon 6 - Traders" transform="translate(-1510 -431)">
    <path id="Path_27920" data-name="Path 27920" d="M1536.119,468.095l.618-6.175a6.689,6.689,0,0,0,1.209.12l-.609,6.1-.011.113a11.629,11.629,0,0,0-1.209-.119Zm8.539-13.345c.018.2.028.4.028.608s-.01.407-.028.608h3.689q-.016-.3-.016-.608t.016-.608Zm13.464,12.018-.621,6.208a6.686,6.686,0,0,1,1.209.12l.621-6.209A11.644,11.644,0,0,1,1558.122,466.768Zm-7.333,13.5c-.018-.2-.028-.4-.028-.608s.01-.407.028-.608H1547.1q.016.3.016.608t-.016.608Z" transform="translate(-13.424 -12.207)" fill="#fff" opacity="0.5"/>
    <path id="Path_27921" data-name="Path 27921" d="M1531.835,496.257a4.86,4.86,0,1,0-7.805,0,4.861,4.861,0,0,0-2.78,4.393v5.767a11.547,11.547,0,0,0,13.365,0V500.65A4.861,4.861,0,0,0,1531.835,496.257Z" transform="translate(-5.782 -29.555)" fill="#fff" opacity="0.5"/>
    <path id="Path_27922" data-name="Path 27922" d="M1581.835,446.257a4.86,4.86,0,1,0-7.805,0,4.861,4.861,0,0,0-2.78,4.393v5.767a11.547,11.547,0,0,0,13.365,0V450.65A4.861,4.861,0,0,0,1581.835,446.257Z" transform="translate(-31.482 -3.855)" fill="#fff" opacity="0.5"/>
    <path id="Path_27923" data-name="Path 27923" d="M1522.15,482.215a10.9,10.9,0,1,1-4.256.859,10.868,10.868,0,0,1,4.256-.859Zm0-1.215a12.15,12.15,0,1,0,12.15,12.15A12.15,12.15,0,0,0,1522.15,481Z" transform="translate(0 -25.7)" fill="#eaedeb"/>
    <path id="Path_27924" data-name="Path 27924" d="M1572.15,432.215a10.9,10.9,0,1,1-4.256.859,10.868,10.868,0,0,1,4.256-.859Zm0-1.215a12.15,12.15,0,1,0,12.15,12.15A12.15,12.15,0,0,0,1572.15,431Z" transform="translate(-25.7)" fill="#eaedeb"/>
    <path id="Path_27925" data-name="Path 27925" d="M1531.683,446.468h1.215v3.645h-1.215Zm7.9,1.823a7.29,7.29,0,1,1-7.29-7.29A7.29,7.29,0,0,1,1539.58,448.29Zm-5.468-3.038H1532.9V443.43h-1.215v1.823h-1.215v6.075h1.215v1.823h1.215v-1.823h1.215Z" transform="translate(-7.71 -5.14)" fill="#eaedeb"/>
    <path id="Path_27926" data-name="Path 27926" d="M1572.29,491a7.29,7.29,0,1,0,7.29,7.29A7.29,7.29,0,0,0,1572.29,491Zm2.43,5.885a3.191,3.191,0,0,0-.684-.46,1.536,1.536,0,0,0-.663-.153,1.3,1.3,0,0,0-.44.074.774.774,0,0,0-.339.232.619.619,0,0,0-.133.412v.55h1.443v1.384h-1.443v1.194a2.453,2.453,0,0,0,.774.222,1.634,1.634,0,0,0,.706-.095,3.852,3.852,0,0,0,.78-.4v1.532a1.744,1.744,0,0,1-.785.454,2.1,2.1,0,0,1-.812.032,7.784,7.784,0,0,1-.822-.174q-.414-.111-.828-.179a2.287,2.287,0,0,0-.818.01,1.746,1.746,0,0,0-.8.417V500.35a1.071,1.071,0,0,1,.451-.206,3.37,3.37,0,0,0,.366-.069v-1.152h-.817V497.54h.817v-.867a2.213,2.213,0,0,1,.218-.951,1.807,1.807,0,0,1,.711-.771,2.484,2.484,0,0,1,1.321-.307,2.815,2.815,0,0,1,.966.169,5.041,5.041,0,0,1,.828.38Z" transform="translate(-28.27 -30.84)" fill="#eaedeb"/>
  </g>
</svg>
